Coordinates
version=1
nRows=65
nColumns=12
inDegrees=yes

Units are S.I. units (second, meters, Newtons, ...)
Angles are in degrees

endheader
time	SC_y	SC_z	SC_x	AC_y	AC_z	AC_x	GH_y	GH_z	GH_yy	EL_x	PS_y
       0.0              -23.88         0.8167          26.63          54.91         -4.993         -14.19          106.2         -2.637         -153.0           56.9          34.86
  0.002843              -23.88         0.8217          26.63          54.91         -4.991         -14.18          106.1         -2.634         -153.0          56.89          34.87
  0.005685              -23.88          0.827          26.63          54.91          -4.99         -14.18          106.1         -2.631         -152.9          56.88          34.89
  0.008528              -23.88         0.8326          26.64          54.91         -4.988         -14.18          106.1         -2.627         -152.9          56.88           34.9
   0.01137              -23.88         0.8385          26.64          54.91         -4.987         -14.18          106.0         -2.624         -152.8          56.87          34.92
   0.01421              -23.88         0.8449          26.64          54.91         -4.985         -14.17          106.0          -2.62         -152.7          56.86          34.93
   0.01706              -23.88         0.8517          26.65          54.91         -4.983         -14.17          105.9         -2.616         -152.7          56.85          34.95
    0.0199              -23.88         0.8589          26.65          54.91         -4.981         -14.17          105.9         -2.612         -152.6          56.85          34.97
   0.02274              -23.88         0.8667          26.66          54.91         -4.979         -14.16          105.8         -2.608         -152.5          56.84          34.99
   0.02558              -23.88          0.875          26.66          54.91         -4.977         -14.16          105.8         -2.603         -152.5          56.83          35.02
   0.02843              -23.88          0.884          26.66          54.91         -4.974         -14.16          105.7         -2.598         -152.4          56.81          35.04
   0.03127              -23.88         0.8936          26.67          54.91         -4.972         -14.15          105.6         -2.592         -152.3           56.8          35.07
   0.03411              -23.89          0.904          26.68          54.91         -4.969         -14.15          105.6         -2.586         -152.2          56.79          35.09
   0.03695              -23.89         0.9152          26.68          54.91         -4.966         -14.14          105.5          -2.58         -152.1          56.78          35.12
    0.0398              -23.89         0.9274          26.69          54.91         -4.963         -14.14          105.4         -2.573         -152.0          56.76          35.16
   0.04264              -23.89         0.9406           26.7          54.92         -4.959         -14.13          105.3         -2.565         -151.9          56.75          35.19
   0.04548              -23.89         0.9549           26.7          54.92         -4.955         -14.13          105.2         -2.557         -151.7          56.73          35.23
   0.04832              -23.89         0.9705          26.71          54.92         -4.951         -14.12          105.1         -2.548         -151.6          56.71          35.27
   0.05117              -23.89         0.9875          26.72          54.92         -4.946         -14.11          105.0         -2.538         -151.4          56.69          35.32
   0.05401              -23.89          1.006          26.73          54.92         -4.941         -14.11          104.9         -2.527         -151.3          56.67          35.37
   0.05685               -23.9          1.027          26.74          54.92         -4.936          -14.1          104.7         -2.516         -151.1          56.64          35.42
   0.05969               -23.9          1.049          26.75          54.92          -4.93         -14.09          104.6         -2.503         -150.9          56.61          35.48
   0.06254               -23.9          1.074          26.77          54.92         -4.923         -14.08          104.4         -2.488         -150.7          56.58          35.55
   0.06538               -23.9          1.102          26.78          54.93         -4.915         -14.07          104.2         -2.472         -150.4          56.55          35.62
   0.06822              -23.91          1.132           26.8          54.93         -4.907         -14.05          104.0         -2.455         -150.1          56.51          35.71
   0.07106              -23.91          1.166          26.82          54.93         -4.898         -14.04          103.8         -2.435         -149.8          56.47           35.8
   0.07391              -23.91          1.205          26.84          54.93         -4.887         -14.02          103.5         -2.413         -149.5          56.42           35.9
   0.07675              -23.92          1.248          26.86          54.94         -4.876          -14.0          103.3         -2.388         -149.1          56.37          36.02
   0.07959              -23.92          1.297          26.89          54.94         -4.862         -13.98          102.9          -2.36         -148.6          56.31          36.15
   0.08243              -23.93          1.352          26.92          54.94         -4.847         -13.96          102.6         -2.328         -148.1          56.24           36.3
   0.08528              -23.93          1.415          26.95          54.95          -4.83         -13.93          102.1         -2.292         -147.6          56.17          36.47
   0.08812              -23.94          1.487          26.99          54.95          -4.81          -13.9          101.6          -2.25         -146.9          56.08          36.66
   0.09096              -23.95          1.571          27.04          54.96         -4.788         -13.87          101.1         -2.202         -146.1          55.97          36.88
    0.0938              -23.96          1.668          27.09          54.97         -4.761         -13.83          100.4         -2.146         -145.3          55.86          37.15
   0.09665              -23.97          1.782          27.15          54.97          -4.73         -13.78          99.66          -2.08         -144.2          55.72          37.45
   0.09949              -23.98          1.916          27.22          54.98         -4.694         -13.72          98.76         -2.003         -143.0          55.55          37.81
    0.1023              -23.99          2.075          27.31          54.99         -4.651         -13.65          97.69         -1.911         -141.6          55.36          38.24
    0.1052              -24.01          2.266          27.41          55.01         -4.599         -13.57           96.4         -1.801         -139.8          55.13          38.75
     0.108              -24.03          2.497          27.54          55.02         -4.536         -13.47          94.85         -1.668         -137.7          54.84          39.37
    0.1109              -24.06          2.779          27.69          55.04         -4.459         -13.36          92.95         -1.505         -135.1           54.5          40.13
    0.1137              -24.09          3.127          27.88          55.06         -4.365         -13.21           90.6         -1.304         -132.0          54.07          41.06
    0.1165              -24.13          3.562          28.12          55.09         -4.247         -13.02          87.68         -1.054         -128.0          53.54          42.23
    0.1194              -24.18          4.109          28.41          55.13         -4.098         -12.79           84.0        -0.7388         -123.1          52.87           43.7
    0.1222              -24.25          4.804          28.79          55.18         -3.909          -12.5          79.32        -0.3379         -116.7          52.02          45.57
    0.1251              -24.33          5.694          29.27          55.24         -3.667         -12.12          73.32         0.1753         -108.6          50.94          47.96
    0.1279              -24.44          6.836          29.89          55.32         -3.356         -11.64          65.63         0.8338         -98.25          49.54          51.03
    0.1308              -24.58          8.296          30.68          55.42          -2.96         -11.02          55.81          1.675         -84.98          47.76          54.94
    0.1336              -24.75          10.13          31.68          55.54         -2.461         -10.24          43.46          2.733          -68.3          45.51          59.87
    0.1364              -24.96          12.37          32.89           55.7         -1.853         -9.297          28.41          4.021         -47.97          42.78          65.87
    0.1393               -25.2          14.96          34.29          55.87         -1.149           -8.2          10.96          5.515          -24.4          39.61          72.83
    0.1421              -25.46          17.76          35.82          56.06        -0.3859         -7.012         -7.929          7.133           1.12          36.18          80.37
     0.145              -25.73          20.57          37.34          56.26         0.3769         -5.824         -26.82          8.751          26.64          32.75           87.9
    0.1478              -25.97          23.16          38.74          56.43          1.081         -4.727         -44.27          10.24          50.21          29.59          94.86
    0.1507              -26.18           25.4          39.95          56.59          1.689         -3.781         -59.32          11.53          70.54          26.85          100.9
    0.1535              -26.35          27.23          40.95          56.71          2.188         -3.004         -71.67          12.59          87.22          24.61          105.8
    0.1563              -26.49          28.69          41.74          56.81          2.585         -2.387         -81.49          13.43          100.5          22.83          109.7
    0.1592              -26.59          29.83          42.36          56.89          2.895         -1.903         -89.18          14.09          110.9          21.43          112.8
     0.162              -26.68          30.72          42.84          56.95          3.137         -1.526         -95.17           14.6          119.0          20.34          115.2
    0.1649              -26.74          31.42          43.22           57.0          3.326         -1.232         -99.86           15.0          125.3          19.49          117.0
    0.1677              -26.79          31.96          43.52          57.03          3.475           -1.0         -103.5          15.32          130.3          18.83          118.5
    0.1706              -26.83           32.4          43.75          57.06          3.593        -0.8164         -106.5          15.57          134.2          18.29          119.7
    0.1734              -26.86          32.75          43.94          57.09          3.688         -0.669         -108.8          15.77          137.4          17.87          120.6
    0.1762              -26.89          33.03          44.09          57.11          3.764        -0.5496         -110.7          15.93          140.0          17.52          121.4
    0.1791              -26.91          33.26          44.22          57.12          3.827        -0.4518         -112.3          16.07          142.1          17.24          122.0
    0.1819              -26.93          33.45          44.32          57.14          3.879         -0.371         -113.5          16.18          143.8          17.01          122.5
